<mxfile host="app.diagrams.net" modified="2024-05-28T15:42:03.995Z" agent="Mozilla/5.0 (Windows NT 10.0; Win64; x64) AppleWebKit/537.36 (KHTML, like Gecko) Chrome/125.0.0.0 Safari/537.36" etag="4cGmfH9Dye3i9fbpWZyI" version="24.4.6" type="device">
  <diagram id="R2lEEEUBdFMjLlhIrx00" name="Page-1">
    <mxGraphModel dx="4033" dy="1694" grid="0" gridSize="10" guides="1" tooltips="1" connect="1" arrows="1" fold="1" page="1" pageScale="1" pageWidth="850" pageHeight="1100" math="0" shadow="0" extFonts="Permanent Marker^https://fonts.googleapis.com/css?family=Permanent+Marker">
      <root>
        <mxCell id="0" />
        <mxCell id="1" parent="0" />
        <mxCell id="LlDNR6XAPYhluXSXyMA1-138" value="WhataboutistPerspectivisation" style="graphMlID=n4;shape=rect;rounded=1;arcsize=30;fillColor=#ffff00;strokeColor=#000000;strokeWidth=1.0" parent="1" vertex="1">
          <mxGeometry x="560" y="296" width="210" height="50" as="geometry" />
        </mxCell>
        <mxCell id="LlDNR6XAPYhluXSXyMA1-139" value="Counterblamable" style="whiteSpace=wrap;html=1;fillColor=#ffff00;strokeColor=#000000;rounded=1;strokeWidth=1;" parent="1" vertex="1">
          <mxGeometry x="-109.01000000000003" y="750" width="120" height="60" as="geometry" />
        </mxCell>
        <mxCell id="LlDNR6XAPYhluXSXyMA1-141" value="" style="graphMlID=e0;rounded=0;endArrow=block;strokeColor=#000080;strokeWidth=1.0;startArrow=oval;startFill=1;endFill=1;fontSize=12;startSize=8;endSize=8;curved=1;entryX=1;entryY=0.75;entryDx=0;entryDy=0;" parent="1" source="LlDNR6XAPYhluXSXyMA1-138" target="LlDNR6XAPYhluXSXyMA1-139" edge="1">
          <mxGeometry relative="1" as="geometry">
            <mxPoint x="390" y="310.08183758898736" as="sourcePoint" />
            <mxPoint x="650" y="650" as="targetPoint" />
            <Array as="points">
              <mxPoint x="670" y="840" />
            </Array>
          </mxGeometry>
        </mxCell>
        <mxCell id="LlDNR6XAPYhluXSXyMA1-230" value="&lt;span style=&quot;color: rgb(0, 0, 128); font-family: dialog; font-size: 16px; background-color: rgb(248, 249, 250);&quot;&gt;Cut&lt;/span&gt;" style="edgeLabel;html=1;align=center;verticalAlign=middle;resizable=0;points=[];fontSize=14;" parent="LlDNR6XAPYhluXSXyMA1-141" vertex="1" connectable="0">
          <mxGeometry x="0.2002" y="-117" relative="1" as="geometry">
            <mxPoint as="offset" />
          </mxGeometry>
        </mxCell>
        <mxCell id="LlDNR6XAPYhluXSXyMA1-143" value="Blamable" style="whiteSpace=wrap;html=1;fillColor=#ffff00;strokeColor=#000000;rounded=1;strokeWidth=1;" parent="1" vertex="1">
          <mxGeometry x="130" y="290" width="120" height="50" as="geometry" />
        </mxCell>
        <mxCell id="LlDNR6XAPYhluXSXyMA1-144" value="" style="graphMlID=e0;rounded=0;endArrow=block;strokeColor=#000080;strokeWidth=1.0;startArrow=oval;startFill=1;endFill=1;fontSize=12;startSize=8;endSize=8;curved=1;entryX=1;entryY=0.5;entryDx=0;entryDy=0;exitX=0;exitY=0.5;exitDx=0;exitDy=0;" parent="1" source="LlDNR6XAPYhluXSXyMA1-138" target="LlDNR6XAPYhluXSXyMA1-143" edge="1">
          <mxGeometry relative="1" as="geometry">
            <mxPoint x="480" y="200" as="sourcePoint" />
            <mxPoint x="601" y="200" as="targetPoint" />
          </mxGeometry>
        </mxCell>
        <mxCell id="LlDNR6XAPYhluXSXyMA1-145" value="&lt;font face=&quot;dialog&quot; color=&quot;#000080&quot;&gt;&lt;span style=&quot;font-size: 16px; background-color: rgb(248, 249, 250);&quot;&gt;Eventuality&lt;/span&gt;&lt;/font&gt;" style="text;html=1;align=center;verticalAlign=middle;resizable=0;points=[];labelBackgroundColor=#ffffff;" parent="LlDNR6XAPYhluXSXyMA1-144" vertex="1" connectable="0">
          <mxGeometry x="-0.0174" y="2" relative="1" as="geometry">
            <mxPoint as="offset" />
          </mxGeometry>
        </mxCell>
        <mxCell id="LlDNR6XAPYhluXSXyMA1-147" value="WhataboutistLens" style="whiteSpace=wrap;html=1;fillColor=#ffff00;strokeColor=#000000;rounded=1;strokeWidth=1;" parent="1" vertex="1">
          <mxGeometry x="150" y="680" width="135" height="50" as="geometry" />
        </mxCell>
        <mxCell id="LlDNR6XAPYhluXSXyMA1-148" value="" style="graphMlID=e0;rounded=0;endArrow=block;strokeColor=#000080;strokeWidth=1.0;startArrow=oval;startFill=1;endFill=1;fontSize=12;startSize=8;endSize=8;curved=1;entryX=1;entryY=0.25;entryDx=0;entryDy=0;" parent="1" source="LlDNR6XAPYhluXSXyMA1-138" target="LlDNR6XAPYhluXSXyMA1-147" edge="1">
          <mxGeometry relative="1" as="geometry">
            <mxPoint x="520" y="520" as="sourcePoint" />
            <mxPoint x="721" y="430" as="targetPoint" />
            <Array as="points">
              <mxPoint x="520" y="630" />
            </Array>
          </mxGeometry>
        </mxCell>
        <mxCell id="LlDNR6XAPYhluXSXyMA1-245" value="&lt;span style=&quot;color: rgb(0, 0, 128); font-family: dialog; font-size: 16px; background-color: rgb(248, 249, 250);&quot;&gt;Lens&lt;/span&gt;" style="edgeLabel;html=1;align=center;verticalAlign=middle;resizable=0;points=[];fontSize=12;" parent="LlDNR6XAPYhluXSXyMA1-148" vertex="1" connectable="0">
          <mxGeometry x="0.2164" y="-48" relative="1" as="geometry">
            <mxPoint as="offset" />
          </mxGeometry>
        </mxCell>
        <mxCell id="LlDNR6XAPYhluXSXyMA1-151" value="" style="graphMlID=e0;rounded=0;endArrow=block;strokeColor=#000080;strokeWidth=1.0;startArrow=oval;startFill=1;endFill=1;fontSize=12;startSize=8;endSize=8;curved=1;exitX=1;exitY=0.25;exitDx=0;exitDy=0;" parent="1" source="LlDNR6XAPYhluXSXyMA1-139" target="LlDNR6XAPYhluXSXyMA1-147" edge="1">
          <mxGeometry relative="1" as="geometry">
            <mxPoint x="230" y="400" as="sourcePoint" />
            <mxPoint x="60" y="400" as="targetPoint" />
          </mxGeometry>
        </mxCell>
        <mxCell id="LlDNR6XAPYhluXSXyMA1-152" value="&lt;font face=&quot;dialog&quot; color=&quot;#000080&quot;&gt;&lt;span style=&quot;font-size: 16px; background-color: rgb(248, 249, 250);&quot;&gt;ShotThrough&lt;/span&gt;&lt;/font&gt;" style="text;html=1;align=center;verticalAlign=middle;resizable=0;points=[];labelBackgroundColor=#ffffff;" parent="LlDNR6XAPYhluXSXyMA1-151" vertex="1" connectable="0">
          <mxGeometry x="-0.0174" y="2" relative="1" as="geometry">
            <mxPoint as="offset" />
          </mxGeometry>
        </mxCell>
        <mxCell id="LlDNR6XAPYhluXSXyMA1-153" value="Blendable" style="graphMlID=n4;shape=rect;rounded=1;arcsize=30;fillColor=#ffff00;strokeColor=#000000;strokeWidth=1.0" parent="1" vertex="1">
          <mxGeometry x="-70.98" y="296" width="81.96822102864604" height="44" as="geometry" />
        </mxCell>
        <mxCell id="LlDNR6XAPYhluXSXyMA1-156" value="BlameSituation" style="graphMlID=n4;shape=rect;rounded=1;arcsize=30;fillColor=#ffff00;strokeColor=#000000;strokeWidth=1.0" parent="1" vertex="1">
          <mxGeometry x="-162" y="194" width="161.97" height="44" as="geometry" />
        </mxCell>
        <mxCell id="LlDNR6XAPYhluXSXyMA1-157" value="BlendedBlameBackground" style="whiteSpace=wrap;html=1;fillColor=#ffff00;strokeColor=#000000;rounded=1;strokeWidth=1;" parent="1" vertex="1">
          <mxGeometry x="170" y="186" width="170" height="60" as="geometry" />
        </mxCell>
        <mxCell id="LlDNR6XAPYhluXSXyMA1-163" value="" style="graphMlID=e0;rounded=0;endArrow=block;strokeColor=#000080;strokeWidth=1.0;startArrow=oval;startFill=1;endFill=1;fontSize=12;startSize=8;endSize=8;curved=1;entryX=1;entryY=0.5;entryDx=0;entryDy=0;" parent="1" source="LlDNR6XAPYhluXSXyMA1-143" target="LlDNR6XAPYhluXSXyMA1-153" edge="1">
          <mxGeometry relative="1" as="geometry">
            <mxPoint x="131" y="204" as="sourcePoint" />
            <mxPoint x="130" y="160" as="targetPoint" />
          </mxGeometry>
        </mxCell>
        <mxCell id="LlDNR6XAPYhluXSXyMA1-164" value="&lt;span style=&quot;color: rgb(0 , 0 , 128) ; font-family: &amp;quot;dialog&amp;quot; ; font-size: 16px ; background-color: rgb(248 , 249 , 250)&quot;&gt;subClassOf&lt;/span&gt;" style="text;html=1;align=center;verticalAlign=middle;resizable=0;points=[];labelBackgroundColor=#ffffff;" parent="LlDNR6XAPYhluXSXyMA1-163" vertex="1" connectable="0">
          <mxGeometry x="-0.0174" y="2" relative="1" as="geometry">
            <mxPoint as="offset" />
          </mxGeometry>
        </mxCell>
        <mxCell id="LlDNR6XAPYhluXSXyMA1-166" value="Blended" style="graphMlID=n4;shape=rect;rounded=1;arcsize=30;fillColor=#ffff00;strokeColor=#000000;strokeWidth=1.0" parent="1" vertex="1">
          <mxGeometry x="149.99999999999997" y="74" width="141.97" height="44" as="geometry" />
        </mxCell>
        <mxCell id="LlDNR6XAPYhluXSXyMA1-167" value="" style="graphMlID=e0;rounded=0;endArrow=block;strokeColor=#000080;strokeWidth=1.0;startArrow=oval;startFill=1;endFill=1;fontSize=12;startSize=8;endSize=8;curved=1;entryX=0.5;entryY=1;entryDx=0;entryDy=0;exitX=0.311;exitY=0.002;exitDx=0;exitDy=0;exitPerimeter=0;" parent="1" source="LlDNR6XAPYhluXSXyMA1-157" target="LlDNR6XAPYhluXSXyMA1-166" edge="1">
          <mxGeometry relative="1" as="geometry">
            <mxPoint x="210" y="110" as="sourcePoint" />
            <mxPoint x="271.97" y="118" as="targetPoint" />
          </mxGeometry>
        </mxCell>
        <mxCell id="LlDNR6XAPYhluXSXyMA1-168" value="&lt;span style=&quot;color: rgb(0, 0, 128); font-family: dialog; background-color: rgb(248, 249, 250);&quot;&gt;&lt;font style=&quot;font-size: 15px;&quot;&gt;subClassOf&lt;/font&gt;&lt;/span&gt;" style="text;html=1;align=center;verticalAlign=middle;resizable=0;points=[];labelBackgroundColor=#ffffff;fontSize=14;" parent="LlDNR6XAPYhluXSXyMA1-167" vertex="1" connectable="0">
          <mxGeometry x="-0.0174" y="2" relative="1" as="geometry">
            <mxPoint as="offset" />
          </mxGeometry>
        </mxCell>
        <mxCell id="LlDNR6XAPYhluXSXyMA1-170" value="Blending" style="graphMlID=n4;shape=rect;rounded=1;arcsize=30;fillColor=#ffff00;strokeColor=#000000;strokeWidth=1.0" parent="1" vertex="1">
          <mxGeometry x="-162" y="74" width="150.99" height="44" as="geometry" />
        </mxCell>
        <mxCell id="LlDNR6XAPYhluXSXyMA1-171" value="" style="graphMlID=e0;rounded=0;endArrow=block;strokeColor=#000080;strokeWidth=1.0;startArrow=oval;startFill=1;endFill=1;fontSize=12;startSize=8;endSize=8;curved=1;exitX=0.5;exitY=0;exitDx=0;exitDy=0;" parent="1" source="LlDNR6XAPYhluXSXyMA1-156" target="LlDNR6XAPYhluXSXyMA1-170" edge="1">
          <mxGeometry relative="1" as="geometry">
            <mxPoint x="-138.92499999999987" y="-120" as="sourcePoint" />
            <mxPoint x="41" y="-150" as="targetPoint" />
          </mxGeometry>
        </mxCell>
        <mxCell id="LlDNR6XAPYhluXSXyMA1-172" value="&lt;span style=&quot;color: rgb(0, 0, 128); font-family: dialog; background-color: rgb(248, 249, 250);&quot;&gt;&lt;font style=&quot;font-size: 15px;&quot;&gt;SubClassOf&lt;/font&gt;&lt;/span&gt;" style="text;html=1;align=center;verticalAlign=middle;resizable=0;points=[];labelBackgroundColor=#ffffff;" parent="LlDNR6XAPYhluXSXyMA1-171" vertex="1" connectable="0">
          <mxGeometry x="-0.0174" y="2" relative="1" as="geometry">
            <mxPoint as="offset" />
          </mxGeometry>
        </mxCell>
        <mxCell id="LlDNR6XAPYhluXSXyMA1-175" value="" style="graphMlID=e0;rounded=0;endArrow=block;strokeColor=#000080;strokeWidth=1.0;startArrow=oval;startFill=1;endFill=1;fontSize=12;startSize=8;endSize=8;curved=1;entryX=1;entryY=0.5;entryDx=0;entryDy=0;" parent="1" source="LlDNR6XAPYhluXSXyMA1-157" target="LlDNR6XAPYhluXSXyMA1-156" edge="1">
          <mxGeometry relative="1" as="geometry">
            <mxPoint x="40" y="-60" as="sourcePoint" />
            <mxPoint x="80" y="-50" as="targetPoint" />
          </mxGeometry>
        </mxCell>
        <mxCell id="LlDNR6XAPYhluXSXyMA1-176" value="&lt;span style=&quot;color: rgb(0 , 0 , 128) ; font-family: &amp;quot;dialog&amp;quot; ; font-size: 16px ; background-color: rgb(248 , 249 , 250)&quot;&gt;SubClassOf&lt;/span&gt;" style="text;html=1;align=center;verticalAlign=middle;resizable=0;points=[];labelBackgroundColor=#ffffff;" parent="LlDNR6XAPYhluXSXyMA1-175" vertex="1" connectable="0">
          <mxGeometry x="-0.0174" y="2" relative="1" as="geometry">
            <mxPoint as="offset" />
          </mxGeometry>
        </mxCell>
        <mxCell id="LlDNR6XAPYhluXSXyMA1-177" value="" style="graphMlID=e0;rounded=0;endArrow=block;strokeColor=#000080;strokeWidth=1.0;startArrow=oval;startFill=1;endFill=1;fontSize=12;startSize=8;endSize=8;curved=1;entryX=0.389;entryY=1.128;entryDx=0;entryDy=0;entryPerimeter=0;" parent="1" source="LlDNR6XAPYhluXSXyMA1-139" target="LlDNR6XAPYhluXSXyMA1-153" edge="1">
          <mxGeometry relative="1" as="geometry">
            <mxPoint x="138" y="275" as="sourcePoint" />
            <mxPoint y="260" as="targetPoint" />
            <Array as="points">
              <mxPoint x="-39" y="750" />
            </Array>
          </mxGeometry>
        </mxCell>
        <mxCell id="LlDNR6XAPYhluXSXyMA1-178" value="&lt;span style=&quot;color: rgb(0 , 0 , 128) ; font-family: &amp;quot;dialog&amp;quot; ; font-size: 16px ; background-color: rgb(248 , 249 , 250)&quot;&gt;subClassOf&lt;/span&gt;" style="text;html=1;align=center;verticalAlign=middle;resizable=0;points=[];labelBackgroundColor=#ffffff;" parent="LlDNR6XAPYhluXSXyMA1-177" vertex="1" connectable="0">
          <mxGeometry x="-0.0174" y="2" relative="1" as="geometry">
            <mxPoint as="offset" />
          </mxGeometry>
        </mxCell>
        <mxCell id="LlDNR6XAPYhluXSXyMA1-186" value="" style="graphMlID=e0;rounded=0;endArrow=block;strokeColor=#000080;strokeWidth=1.0;startArrow=oval;startFill=1;endFill=1;fontSize=12;startSize=8;endSize=8;curved=1;entryX=0.407;entryY=1.011;entryDx=0;entryDy=0;exitX=0.75;exitY=0;exitDx=0;exitDy=0;entryPerimeter=0;" parent="1" source="LlDNR6XAPYhluXSXyMA1-147" target="LlDNR6XAPYhluXSXyMA1-188" edge="1">
          <mxGeometry relative="1" as="geometry">
            <mxPoint x="400" y="-70" as="sourcePoint" />
            <mxPoint x="530" y="-50" as="targetPoint" />
          </mxGeometry>
        </mxCell>
        <mxCell id="LlDNR6XAPYhluXSXyMA1-187" value="&lt;font face=&quot;dialog&quot; color=&quot;#000080&quot;&gt;&lt;span style=&quot;font-size: 16px; background-color: rgb(248, 249, 250);&quot;&gt;SubClassOf&lt;/span&gt;&lt;/font&gt;" style="text;html=1;align=center;verticalAlign=middle;resizable=0;points=[];labelBackgroundColor=#ffffff;" parent="LlDNR6XAPYhluXSXyMA1-186" vertex="1" connectable="0">
          <mxGeometry x="-0.0174" y="2" relative="1" as="geometry">
            <mxPoint as="offset" />
          </mxGeometry>
        </mxCell>
        <mxCell id="LlDNR6XAPYhluXSXyMA1-188" value="FocusShiftingLens" style="whiteSpace=wrap;html=1;fillColor=#ffff00;strokeColor=#000000;rounded=1;strokeWidth=1;" parent="1" vertex="1">
          <mxGeometry x="248.03" y="510" width="120" height="40" as="geometry" />
        </mxCell>
        <mxCell id="LlDNR6XAPYhluXSXyMA1-189" value="RelevanceFallacyLens" style="whiteSpace=wrap;html=1;fillColor=#ffff00;strokeColor=#000000;rounded=1;strokeWidth=1;" parent="1" vertex="1">
          <mxGeometry x="200" y="410" width="140" height="27" as="geometry" />
        </mxCell>
        <mxCell id="LlDNR6XAPYhluXSXyMA1-190" value="" style="graphMlID=e0;rounded=0;endArrow=block;strokeColor=#000080;strokeWidth=1.0;startArrow=oval;startFill=1;endFill=1;fontSize=12;startSize=8;endSize=8;curved=1;" parent="1" source="LlDNR6XAPYhluXSXyMA1-189" target="LlDNR6XAPYhluXSXyMA1-188" edge="1">
          <mxGeometry relative="1" as="geometry">
            <mxPoint x="270" y="-270" as="sourcePoint" />
            <mxPoint x="400" y="-250" as="targetPoint" />
          </mxGeometry>
        </mxCell>
        <mxCell id="LlDNR6XAPYhluXSXyMA1-191" value="&lt;font face=&quot;dialog&quot; color=&quot;#000080&quot;&gt;&lt;span style=&quot;font-size: 16px; background-color: rgb(248, 249, 250);&quot;&gt;SubClassOf&lt;/span&gt;&lt;/font&gt;" style="text;html=1;align=center;verticalAlign=middle;resizable=0;points=[];labelBackgroundColor=#ffffff;" parent="LlDNR6XAPYhluXSXyMA1-190" vertex="1" connectable="0">
          <mxGeometry x="-0.0174" y="2" relative="1" as="geometry">
            <mxPoint as="offset" />
          </mxGeometry>
        </mxCell>
        <mxCell id="LlDNR6XAPYhluXSXyMA1-192" value="ConfirmationBiasFallacy" style="whiteSpace=wrap;html=1;fillColor=#ffff00;strokeColor=#000000;rounded=1;strokeWidth=1;" parent="1" vertex="1">
          <mxGeometry x="360" y="410" width="150" height="24.5" as="geometry" />
        </mxCell>
        <mxCell id="LlDNR6XAPYhluXSXyMA1-193" value="" style="graphMlID=e0;rounded=0;endArrow=block;strokeColor=#000080;strokeWidth=1.0;startArrow=oval;startFill=1;endFill=1;fontSize=12;startSize=8;endSize=8;curved=1;" parent="1" source="LlDNR6XAPYhluXSXyMA1-192" target="LlDNR6XAPYhluXSXyMA1-188" edge="1">
          <mxGeometry relative="1" as="geometry">
            <mxPoint x="590" y="-320" as="sourcePoint" />
            <mxPoint x="780" y="-142" as="targetPoint" />
          </mxGeometry>
        </mxCell>
        <mxCell id="LlDNR6XAPYhluXSXyMA1-194" value="&lt;font face=&quot;dialog&quot; color=&quot;#000080&quot;&gt;&lt;span style=&quot;font-size: 16px; background-color: rgb(248, 249, 250);&quot;&gt;SubClassOf&lt;/span&gt;&lt;/font&gt;" style="text;html=1;align=center;verticalAlign=middle;resizable=0;points=[];labelBackgroundColor=#ffffff;" parent="LlDNR6XAPYhluXSXyMA1-193" vertex="1" connectable="0">
          <mxGeometry x="-0.0174" y="2" relative="1" as="geometry">
            <mxPoint as="offset" />
          </mxGeometry>
        </mxCell>
        <mxCell id="LlDNR6XAPYhluXSXyMA1-195" value="" style="graphMlID=e0;rounded=0;endArrow=block;strokeColor=#000080;strokeWidth=1.0;startArrow=oval;startFill=1;endFill=1;fontSize=12;startSize=8;endSize=8;curved=1;exitX=0.133;exitY=0.004;exitDx=0;exitDy=0;exitPerimeter=0;" parent="1" source="LlDNR6XAPYhluXSXyMA1-138" target="LlDNR6XAPYhluXSXyMA1-157" edge="1">
          <mxGeometry relative="1" as="geometry">
            <mxPoint x="700" y="300" as="sourcePoint" />
            <mxPoint x="720" y="-70" as="targetPoint" />
          </mxGeometry>
        </mxCell>
        <mxCell id="LlDNR6XAPYhluXSXyMA1-196" value="Background" style="text;html=1;align=center;verticalAlign=middle;resizable=0;points=[];labelBackgroundColor=#ffffff;fontSize=13;" parent="LlDNR6XAPYhluXSXyMA1-195" vertex="1" connectable="0">
          <mxGeometry x="-0.0174" y="2" relative="1" as="geometry">
            <mxPoint as="offset" />
          </mxGeometry>
        </mxCell>
        <mxCell id="LlDNR6XAPYhluXSXyMA1-199" value="" style="graphMlID=e0;rounded=0;endArrow=block;strokeColor=#000080;strokeWidth=1.0;startArrow=oval;startFill=1;endFill=1;fontSize=12;startSize=8;endSize=8;curved=1;entryX=0.25;entryY=1;entryDx=0;entryDy=0;exitX=0.25;exitY=0;exitDx=0;exitDy=0;" parent="1" source="LlDNR6XAPYhluXSXyMA1-139" target="LlDNR6XAPYhluXSXyMA1-156" edge="1">
          <mxGeometry relative="1" as="geometry">
            <mxPoint x="-90" y="700" as="sourcePoint" />
            <mxPoint x="-174" y="172" as="targetPoint" />
            <Array as="points">
              <mxPoint x="-120" y="580" />
            </Array>
          </mxGeometry>
        </mxCell>
        <mxCell id="LlDNR6XAPYhluXSXyMA1-200" value="&lt;span style=&quot;color: rgb(0 , 0 , 128) ; font-family: &amp;quot;dialog&amp;quot; ; font-size: 16px ; background-color: rgb(248 , 249 , 250)&quot;&gt;subClassOf&lt;/span&gt;" style="text;html=1;align=center;verticalAlign=middle;resizable=0;points=[];labelBackgroundColor=#ffffff;" parent="LlDNR6XAPYhluXSXyMA1-199" vertex="1" connectable="0">
          <mxGeometry x="-0.0174" y="2" relative="1" as="geometry">
            <mxPoint as="offset" />
          </mxGeometry>
        </mxCell>
        <mxCell id="LlDNR6XAPYhluXSXyMA1-211" value="" style="graphMlID=e2;rounded=0;endArrow=block;strokeColor=#008000;strokeWidth=1.0;startArrow=oval;startFill=0;endFill=0;fontSize=12;startSize=8;endSize=8;curved=1;" parent="1" target="LlDNR6XAPYhluXSXyMA1-214" edge="1">
          <mxGeometry relative="1" as="geometry">
            <mxPoint x="750" y="350" as="sourcePoint" />
            <mxPoint x="810" y="470" as="targetPoint" />
          </mxGeometry>
        </mxCell>
        <mxCell id="LlDNR6XAPYhluXSXyMA1-212" value="&lt;span style=&quot;color: rgb(0 , 128 , 0) ; font-family: &amp;quot;dialog&amp;quot; ; font-size: 16px ; background-color: rgb(248 , 249 , 250)&quot;&gt;relatedIdentifyingPattern&lt;/span&gt;" style="text;html=1;align=center;verticalAlign=middle;resizable=0;points=[];labelBackgroundColor=#ffffff;" parent="LlDNR6XAPYhluXSXyMA1-211" vertex="1" connectable="0">
          <mxGeometry x="-0.0896" y="3" relative="1" as="geometry">
            <mxPoint as="offset" />
          </mxGeometry>
        </mxCell>
        <mxCell id="LlDNR6XAPYhluXSXyMA1-214" value="xsd:string" style="graphMlID=n6;shape=parallelogram;fillColor=#ccffcc;strokeColor=#000000;strokeWidth=1.0" parent="1" vertex="1">
          <mxGeometry x="690" y="470" width="126.0949682107173" height="43" as="geometry" />
        </mxCell>
        <mxCell id="LlDNR6XAPYhluXSXyMA1-219" value="" style="graphMlID=e0;rounded=0;endArrow=block;strokeColor=#000080;strokeWidth=1.0;startArrow=oval;startFill=1;endFill=1;fontSize=12;startSize=8;endSize=8;curved=1;exitX=0.25;exitY=0;exitDx=0;exitDy=0;" parent="1" source="LlDNR6XAPYhluXSXyMA1-147" target="LlDNR6XAPYhluXSXyMA1-143" edge="1">
          <mxGeometry relative="1" as="geometry">
            <mxPoint x="290" y="640" as="sourcePoint" />
            <mxPoint x="249" y="484" as="targetPoint" />
            <Array as="points">
              <mxPoint x="100" y="570" />
            </Array>
          </mxGeometry>
        </mxCell>
        <mxCell id="LlDNR6XAPYhluXSXyMA1-220" value="&lt;span style=&quot;color: rgb(0 , 0 , 128) ; font-family: &amp;quot;dialog&amp;quot; ; font-size: 16px ; background-color: rgb(248 , 249 , 250)&quot;&gt;shiftsFocusFrom&lt;/span&gt;" style="text;html=1;align=center;verticalAlign=middle;resizable=0;points=[];labelBackgroundColor=#ffffff;" parent="LlDNR6XAPYhluXSXyMA1-219" vertex="1" connectable="0">
          <mxGeometry x="-0.0174" y="2" relative="1" as="geometry">
            <mxPoint as="offset" />
          </mxGeometry>
        </mxCell>
        <mxCell id="LlDNR6XAPYhluXSXyMA1-222" value="ResponsibilityOwner" style="graphMlID=n4;shape=rect;rounded=1;arcsize=30;fillColor=#ffff00;strokeColor=#000000;strokeWidth=1.0" parent="1" vertex="1">
          <mxGeometry x="-425" y="310" width="120" height="50" as="geometry" />
        </mxCell>
        <mxCell id="LlDNR6XAPYhluXSXyMA1-224" value="Ought" style="graphMlID=n4;shape=rect;rounded=1;arcsize=30;fillColor=#ffff00;strokeColor=#000000;strokeWidth=1.0" parent="1" vertex="1">
          <mxGeometry x="-425" y="160" width="101.97" height="44" as="geometry" />
        </mxCell>
        <mxCell id="LlDNR6XAPYhluXSXyMA1-225" value="" style="graphMlID=e0;rounded=0;endArrow=block;strokeColor=#000080;strokeWidth=1.0;startArrow=oval;startFill=1;endFill=1;fontSize=12;startSize=8;endSize=8;curved=1;entryX=0;entryY=0.75;entryDx=0;entryDy=0;" parent="1" source="LlDNR6XAPYhluXSXyMA1-222" target="LlDNR6XAPYhluXSXyMA1-156" edge="1">
          <mxGeometry relative="1" as="geometry">
            <mxPoint x="-300" y="370.08183758898736" as="sourcePoint" />
            <mxPoint x="-149" y="370" as="targetPoint" />
          </mxGeometry>
        </mxCell>
        <mxCell id="LlDNR6XAPYhluXSXyMA1-226" value="&lt;span style=&quot;color: rgb(0 , 0 , 128) ; font-family: &amp;quot;dialog&amp;quot; ; font-size: 16px ; background-color: rgb(248 , 249 , 250)&quot;&gt;isParticipantIn&lt;/span&gt;" style="text;html=1;align=center;verticalAlign=middle;resizable=0;points=[];labelBackgroundColor=#ffffff;" parent="LlDNR6XAPYhluXSXyMA1-225" vertex="1" connectable="0">
          <mxGeometry x="-0.0174" y="2" relative="1" as="geometry">
            <mxPoint as="offset" />
          </mxGeometry>
        </mxCell>
        <mxCell id="LlDNR6XAPYhluXSXyMA1-227" value="" style="graphMlID=e0;rounded=0;endArrow=block;strokeColor=#000080;strokeWidth=1.0;startArrow=oval;startFill=1;endFill=1;fontSize=12;startSize=8;endSize=8;curved=1;exitX=1;exitY=0.75;exitDx=0;exitDy=0;entryX=0;entryY=0.5;entryDx=0;entryDy=0;" parent="1" source="LlDNR6XAPYhluXSXyMA1-224" target="LlDNR6XAPYhluXSXyMA1-156" edge="1">
          <mxGeometry relative="1" as="geometry">
            <mxPoint x="-240" y="450" as="sourcePoint" />
            <mxPoint x="-89" y="449.91816241101264" as="targetPoint" />
          </mxGeometry>
        </mxCell>
        <mxCell id="LlDNR6XAPYhluXSXyMA1-228" value="&lt;span style=&quot;color: rgb(0 , 0 , 128) ; font-family: &amp;quot;dialog&amp;quot; ; font-size: 16px ; background-color: rgb(248 , 249 , 250)&quot;&gt;isParticipantIn&lt;/span&gt;" style="text;html=1;align=center;verticalAlign=middle;resizable=0;points=[];labelBackgroundColor=#ffffff;" parent="LlDNR6XAPYhluXSXyMA1-227" vertex="1" connectable="0">
          <mxGeometry x="-0.0174" y="2" relative="1" as="geometry">
            <mxPoint as="offset" />
          </mxGeometry>
        </mxCell>
        <mxCell id="LlDNR6XAPYhluXSXyMA1-231" value="" style="graphMlID=e0;rounded=0;endArrow=block;strokeColor=#000080;strokeWidth=1.0;startArrow=oval;startFill=1;endFill=1;fontSize=12;startSize=8;endSize=8;curved=1;entryX=0.5;entryY=1;entryDx=0;entryDy=0;exitX=0.41;exitY=0;exitDx=0;exitDy=0;exitPerimeter=0;" parent="1" source="LlDNR6XAPYhluXSXyMA1-222" target="LlDNR6XAPYhluXSXyMA1-224" edge="1">
          <mxGeometry relative="1" as="geometry">
            <mxPoint x="-440" y="246.08183758898736" as="sourcePoint" />
            <mxPoint x="-289" y="246" as="targetPoint" />
          </mxGeometry>
        </mxCell>
        <mxCell id="LlDNR6XAPYhluXSXyMA1-232" value="&lt;span style=&quot;color: rgb(0 , 0 , 128) ; font-family: &amp;quot;dialog&amp;quot; ; font-size: 16px ; background-color: rgb(248 , 249 , 250)&quot;&gt;actsAgainst&lt;/span&gt;" style="text;html=1;align=center;verticalAlign=middle;resizable=0;points=[];labelBackgroundColor=#ffffff;" parent="LlDNR6XAPYhluXSXyMA1-231" vertex="1" connectable="0">
          <mxGeometry x="-0.0174" y="2" relative="1" as="geometry">
            <mxPoint as="offset" />
          </mxGeometry>
        </mxCell>
        <mxCell id="LlDNR6XAPYhluXSXyMA1-233" style="edgeStyle=none;curved=1;rounded=0;orthogonalLoop=1;jettySize=auto;html=1;exitX=0.75;exitY=1;exitDx=0;exitDy=0;fontSize=12;startSize=8;endSize=8;" parent="1" source="LlDNR6XAPYhluXSXyMA1-188" target="LlDNR6XAPYhluXSXyMA1-188" edge="1">
          <mxGeometry relative="1" as="geometry" />
        </mxCell>
        <mxCell id="LlDNR6XAPYhluXSXyMA1-234" style="edgeStyle=none;curved=1;rounded=0;orthogonalLoop=1;jettySize=auto;html=1;exitX=0.25;exitY=1;exitDx=0;exitDy=0;fontSize=12;startSize=8;endSize=8;" parent="1" source="LlDNR6XAPYhluXSXyMA1-153" target="LlDNR6XAPYhluXSXyMA1-153" edge="1">
          <mxGeometry relative="1" as="geometry" />
        </mxCell>
        <mxCell id="LlDNR6XAPYhluXSXyMA1-240" value="" style="graphMlID=e0;rounded=0;endArrow=block;strokeColor=#000080;strokeWidth=1.0;startArrow=oval;startFill=1;endFill=1;fontSize=12;startSize=8;endSize=8;curved=1;exitX=0.817;exitY=1.012;exitDx=0;exitDy=0;exitPerimeter=0;" parent="1" source="LlDNR6XAPYhluXSXyMA1-188" target="LlDNR6XAPYhluXSXyMA1-188" edge="1">
          <mxGeometry relative="1" as="geometry">
            <mxPoint x="351.06999999999994" y="549.44" as="sourcePoint" />
            <mxPoint x="373.03" y="530" as="targetPoint" />
            <Array as="points">
              <mxPoint x="345" y="590" />
              <mxPoint x="410" y="580" />
              <mxPoint x="405" y="530" />
            </Array>
          </mxGeometry>
        </mxCell>
        <mxCell id="LlDNR6XAPYhluXSXyMA1-241" value="&lt;span style=&quot;color: rgb(0 , 0 , 128) ; font-family: &amp;quot;dialog&amp;quot; ; font-size: 16px ; background-color: rgb(248 , 249 , 250)&quot;&gt;relatedToLens&lt;/span&gt;" style="text;html=1;align=center;verticalAlign=middle;resizable=0;points=[];labelBackgroundColor=#ffffff;" parent="LlDNR6XAPYhluXSXyMA1-240" vertex="1" connectable="0">
          <mxGeometry x="-0.0174" y="2" relative="1" as="geometry">
            <mxPoint as="offset" />
          </mxGeometry>
        </mxCell>
        <mxCell id="LlDNR6XAPYhluXSXyMA1-246" value="" style="graphMlID=e0;rounded=0;endArrow=block;strokeColor=#000080;strokeWidth=1.0;startArrow=oval;startFill=1;endFill=1;fontSize=12;startSize=8;endSize=8;curved=1;entryX=1;entryY=1;entryDx=0;entryDy=0;exitX=0;exitY=0;exitDx=0;exitDy=0;" parent="1" source="LlDNR6XAPYhluXSXyMA1-143" target="LlDNR6XAPYhluXSXyMA1-156" edge="1">
          <mxGeometry relative="1" as="geometry">
            <mxPoint x="130" y="260" as="sourcePoint" />
            <mxPoint x="-40" y="260" as="targetPoint" />
          </mxGeometry>
        </mxCell>
        <mxCell id="LlDNR6XAPYhluXSXyMA1-247" value="&lt;span style=&quot;color: rgb(0 , 0 , 128) ; font-family: &amp;quot;dialog&amp;quot; ; font-size: 16px ; background-color: rgb(248 , 249 , 250)&quot;&gt;SubClassOf&lt;/span&gt;" style="text;html=1;align=center;verticalAlign=middle;resizable=0;points=[];labelBackgroundColor=#ffffff;" parent="LlDNR6XAPYhluXSXyMA1-246" vertex="1" connectable="0">
          <mxGeometry x="-0.0174" y="2" relative="1" as="geometry">
            <mxPoint as="offset" />
          </mxGeometry>
        </mxCell>
      </root>
    </mxGraphModel>
  </diagram>
</mxfile>
